#!OML:ASF F:\VICON\USERDATA\INSTALL\rory3\rory3.ASF
:FULLY-SPECIFIED
:DEGREES
111
root -0.15614 18.4355 -13.8398 5.14271 -9.75419 2.13298
lowerback 12.4021 1.5261 -3.36816
upperback 1.12844 1.4301 -1.96608
thorax -5.80387 0.756274 -0.413073
lowerneck -11.5641 -1.92513 -7.25508
upperneck 10.0837 -2.37568 7.97883
head 5.10541 -0.915895 3.50127
rclavicle -6.75868e-015 -2.66371e-014
rhumerus -35.4888 8.16428 -82.1151
rradius 52.6742
rwrist 10.6845
rhand -22.2672 3.64905
rfingers 7.12502
rthumb 4.1508 -26.2903
lclavicle -6.75868e-015 -2.66371e-014
lhumerus -32.3777 0.649027 78.1068
lradius 39.2008
lwrist 4.90057
lhand -17.2769 24.4731
lfingers 7.12502
lthumb 8.96817 54.2625
rfemur -21.3586 17.9027 12.1926
rtibia 34.6722
rfoot -18.5038 -11.9784
rtoes -5.02452
lfemur -19.3912 2.00777 -22.077
ltibia 34.4696
lfoot -17.8541 9.14044
ltoes -7.76202
112
root -0.150178 18.3994 -13.8771 5.34133 -9.89179 2.06388
lowerback 12.7387 1.56261 -3.40409
upperback 1.11035 1.45709 -1.93294
thorax -6.01295 0.772186 -0.372607
lowerneck -11.5763 -1.82787 -7.16124
upperneck 9.8465 -2.24082 7.93072
head 5.02195 -0.850027 3.47921
rclavicle -6.85807e-015 -1.63003e-014
rhumerus -35.4831 8.31673 -81.9604
rradius 52.7581
rwrist 10.5505
rhand -22.1614 4.12232
rfingers 7.12502
rthumb 4.25293 -25.815
lclavicle -6.85807e-015 -1.63003e-014
lhumerus -32.3672 0.313273 78.102
lradius 39.4544
lwrist 5.15604
lhand -17.1468 24.8672
lfingers 7.12502
lthumb 9.09372 54.6512
rfemur -22.2036 17.7135 12.1298
rtibia 35.4646
rfoot -18.6986 -11.6558
rtoes -5.58633
lfemur -20.2043 2.33645 -22.0238
ltibia 35.3161
lfoot -18.0267 8.8971
ltoes -7.47
113
root -0.143684 18.3663 -13.9056 5.51709 -9.95547 2.09841
lowerback 12.9819 1.56597 -3.51555
upperback 1.12498 1.43352 -1.92341
thorax -6.13558 0.764181 -0.302138
lowerneck -11.656 -1.71355 -6.96733
upperneck 9.6489 -2.08287 7.76028
head 4.95812 -0.77553 3.40383
rclavicle 2.67365e-014 -7.95139e-015
rhumerus -35.4788 8.47362 -81.8002
rradius 52.8429
rwrist 10.4844
rhand -22.0102 4.27008
rfingers 7.12502
rthumb 4.39892 -25.6642
lclavicle 2.67365e-014 -7.95139e-015
lhumerus -32.2927 0.108037 78.0711
lradius 39.5583
lwrist 5.31877
lhand -17.1372 24.5452
lfingers 7.12502
lthumb 9.10297 54.3288
rfemur -22.9983 17.4417 11.9789
rtibia 36.2541
rfoot -18.884 -11.3597
rtoes -5.94864
lfemur -20.9657 2.48001 -22.0789
ltibia 36.133
lfoot -18.2733 8.74609
ltoes -7.25312
114
root -0.136204 18.3367 -13.9266 5.58223 -10.0623 2.18776
lowerback 13.2582 1.59951 -3.64328
upperback 1.18206 1.44481 -1.93752
thorax -6.23202 0.772733 -0.253767
lowerneck -11.6538 -1.62481 -6.8172
upperneck 9.36866 -1.95484 7.59935
head 4.85853 -0.718586 3.33578
rclavicle -1.98785e-016 -2.90226e-014
rhumerus -35.4523 8.62386 -81.6295
rradius 52.8957
rwrist 10.4687
rhand -22.3081 3.86398
rfingers 7.12502
rthumb 4.11128 -26.0761
lclavicle -1.98785e-016 -2.90226e-014
lhumerus -32.2998 -0.130712 78.0567
lradius 39.7974
lwrist 5.54115
lhand -17.1523 24.4237
lfingers 7.12502
lthumb 9.08843 54.2079
rfemur -23.6487 17.1972 11.8001
rtibia 37.0679
rfoot -19.1504 -11.0167
rtoes -6.048
lfemur -21.5423 2.6381 -22.2043
ltibia 36.892
lfoot -18.5558 8.63186
ltoes -6.9739
115
root -0.131625 18.3043 -13.9494 5.65045 -10.2221 2.21747
lowerback 13.5578 1.64869 -3.79321
upperback 1.24502 1.47387 -1.91555
thorax -6.33704 0.791022 -0.15878
lowerneck -11.6354 -1.53475 -6.85111
upperneck 9.03178 -1.82276 7.68862
head 4.74307 -0.650922 3.37705
rclavicle 3.53837e-014 3.45885e-014
rhumerus -35.3567 8.79794 -81.4467
rradius 52.8546
rwrist 10.4214
rhand -22.7765 3.61529
rfingers 7.12502
rthumb 3.65893 -26.333
lclavicle 3.53837e-014 3.45885e-014
lhumerus -32.4067 -0.404214 78.0633
lradius 40.1471
lwrist 5.80733
lhand -17.274 24.6373
lfingers 7.12502
lthumb 8.97091 54.4266
rfemur -24.3422 17.0384 11.6962
rtibia 37.9004
rfoot -19.3668 -10.7598
rtoes -6.37364
lfemur -22.076 2.91182 -22.2564
ltibia 37.5614
lfoot -18.7592 8.48246
ltoes -6.81584
116
root -0.125274 18.2681 -13.9784 5.7852 -10.3135 2.37596
lowerback 13.8033 1.68518 -3.9848
upperback 1.31786 1.47689 -1.9728
thorax -6.39964 0.796208 -0.117534
lowerneck -11.671 -1.48432 -6.76855
upperneck 8.7031 -1.75243 7.70791
head 4.64232 -0.612845 3.37224
rclavicle -2.21645e-014 1.27222e-014
rhumerus -35.1993 8.77001 -81.2664
rradius 52.6997
rwrist 10.501
rhand -23.2266 3.45383
rfingers 7.12502
rthumb 3.22429 -26.5015
lclavicle -2.21645e-014 1.27222e-014
lhumerus -32.3011 -0.812094 78.0473
lradius 40.3562
lwrist 6.22641
lhand -17.4245 24.8529
lfingers 7.12502
lthumb 8.82572 54.6483
rfemur -25.135 16.8003 11.4092
rtibia 38.7435
rfoot -19.6105 -10.4197
rtoes -6.42316
lfemur -22.702 3.149 -22.4626
ltibia 38.1636
lfoot -18.8591 8.33472
ltoes -6.90491
117
root -0.114582 18.2341 -14.0068 5.91709 -10.3862 2.71651
lowerback 13.9376 1.71283 -4.19343
upperback 1.45017 1.4655 -2.14782
thorax -6.33376 0.791261 -0.184062
lowerneck -11.8134 -1.44327 -6.59863
upperneck 8.38202 -1.69839 7.68096
head 4.56189 -0.580788 3.33738
rclavicle -1.37161e-014 1.03368e-014
rhumerus -34.9655 8.60701 -81.1234
rradius 52.5358
rwrist 10.568
rhand -23.4406 3.21605
rfingers 7.12502
rthumb 3.0176 -26.7423
lclavicle -1.37161e-014 1.03368e-014
lhumerus -31.9508 -1.30385 77.9843
lradius 40.3703
lwrist 6.63929
lhand -17.7493 24.5247
lfingers 7.12502
lthumb 8.51225 54.3331
rfemur -25.913 16.3567 10.9258
rtibia 39.6049
rfoot -19.9039 -9.92813
rtoes -6.72917
lfemur -23.3135 3.26835 -22.8908
ltibia 38.7332
lfoot -19.0341 8.2542
ltoes -7.03919
118
root -0.105191 18.2052 -14.0286 5.9631 -10.5285 3.00874
lowerback 14.2876 1.75958 -4.48413
upperback 1.44403 1.45167 -2.24453
thorax -6.53927 0.792636 -0.13093
lowerneck -11.7821 -1.35728 -6.52049
upperneck 8.18074 -1.58826 7.69102
head 4.48639 -0.525048 3.3343
rclavicle 2.3556e-014 -1.51076e-014
rhumerus -34.982 8.67673 -80.9942
rradius 52.3659
rwrist 10.4947
rhand -23.4111 3.23554
rfingers 7.12502
rthumb 3.04613 -26.7224
lclavicle 2.3556e-014 -1.51076e-014
lhumerus -31.9721 -1.68265 77.9681
lradius 40.4248
lwrist 6.92989
lhand -18.196 23.7738
lfingers 7.12502
lthumb 8.08113 53.5993
rfemur -26.5766 15.9978 10.5313
rtibia 40.4643
rfoot -20.207 -9.48309
rtoes -6.98982
lfemur -23.7741 3.39874 -23.2587
ltibia 39.315
lfoot -19.2899 8.17634
ltoes -6.70941
119
root -0.100504 18.1722 -14.0571 6.02816 -10.6538 3.29714
lowerback 14.5748 1.80137 -4.84469
upperback 1.52618 1.42683 -2.32059
thorax -6.61716 0.78848 -0.0105869
lowerneck -11.7207 -1.28364 -6.41573
upperneck 7.81176 -1.48553 7.63726
head 4.35462 -0.477313 3.30479
rclavicle -6.85807e-015 3.10104e-014
rhumerus -34.7843 8.74259 -80.8374
rradius 52.1628
rwrist 10.4746
rhand -23.4602 2.79937
rfingers 7.12502
rthumb 2.99871 -27.1593
lclavicle -6.85807e-015 3.10104e-014
lhumerus -31.9099 -1.88784 77.9167
lradius 40.56
lwrist 7.12881
lhand -18.3508 23.4762
lfingers 7.12502
lthumb 7.93176 53.3074
rfemur -27.2992 15.6797 10.144
rtibia 41.2964
rfoot -20.4637 -9.09375
rtoes -6.81321
lfemur -24.3134 3.62355 -23.6003
ltibia 39.9189
lfoot -19.4639 7.97496
ltoes -6.39574
120
root -0.0988935 18.1332 -14.0999 6.25288 -10.7271 3.3974
lowerback 14.9334 1.82654 -5.04571
upperback 1.5492 1.3986 -2.36214
thorax -6.79427 0.781185 0.0540033
lowerneck -11.7508 -1.20324 -6.26211
upperneck 7.47073 -1.37729 7.57331
head 4.24606 -0.424189 3.26478
rclavicle -2.27608e-014 3.10104e-014
rhumerus -34.6499 8.66713 -80.6877
rradius 52.0051
rwrist 10.5687
rhand -23.6478 2.60543
rfingers 7.12502
rthumb 2.8175 -27.3557
lclavicle -2.27608e-014 3.10104e-014
lhumerus -31.8105 -2.16143 77.8259
lradius 40.6082
lwrist 7.15596
lhand -18.3525 23.4684
lfingers 7.12502
lthumb 7.93013 53.2996
rfemur -28.2033 15.3649 9.9488
rtibia 42.0818
rfoot -20.5834 -8.83756
rtoes -7.01785
lfemur -25.1192 3.9144 -23.721
ltibia 40.5735
lfoot -19.5229 7.71643
ltoes -6.34637
121
root -0.0927877 18.0956 -14.1344 6.30657 -11.0562 3.44233
lowerback 15.3684 1.93043 -5.17952
upperback 1.64706 1.48004 -2.4141
thorax -6.93544 0.823431 0.0460475
lowerneck -11.9128 -1.11075 -6.18942
upperneck 7.15488 -1.24615 7.62429
head 4.16696 -0.3531 3.27614
rclavicle 0 -5.96354e-015
rhumerus -34.5058 8.60797 -80.5513
rradius 51.8476
rwrist 10.6788
rhand -23.6741 2.80309
rfingers 7.12502
rthumb 2.79209 -27.1584
lclavicle 0 -5.96354e-015
lhumerus -31.6687 -2.44726 77.745
lradius 40.4916
lwrist 7.04108
lhand -18.5393 22.9437
lfingers 7.12502
lthumb 7.7498 52.7817
rfemur -28.9349 15.2354 9.82473
rtibia 42.8239
rfoot -20.7048 -8.48976
rtoes -7.24463
lfemur -25.6881 4.35915 -23.7979
ltibia 41.2498
lfoot -19.6868 7.46241
ltoes -5.80973
